<svg width="100" height="100" viewBox="0 0 100 100" fill="none" xmlns="http://www.w3.org/2000/svg">
<path d="M92.0912 38.0843C92.0693 32.3919 90.0856 26.8786 86.4694 22.4537C87.6976 17.3961 87.3137 12.0854 85.3737 7.25084C84.9912 6.32018 84.207 5.60866 83.2384 5.31106C81.8667 4.84571 76.6765 3.97323 66.101 10.7596V10.761C61.5515 9.57193 56.8601 9.01056 52.1564 9.09308C47.4457 9.00921 42.7462 9.57058 38.1912 10.761C27.3411 3.81885 21.7001 4.94292 20.5649 5.27293C19.5908 5.5827 18.808 6.3091 18.4295 7.25056C16.4841 12.0689 16.0865 17.3647 17.2942 22.4157C13.5589 26.8174 11.5686 32.4135 11.6927 38.1612C11.6927 59.6098 24.0893 66.0865 35.4493 68.3751C34.866 69.7873 34.4643 71.2659 34.2553 72.7768C34.2348 72.9378 34.2348 73.1015 34.2553 73.2624V79.1954C23.9148 80.049 21.7013 74.0565 21.4855 73.3774V73.3788C21.4349 73.2205 21.3762 73.0649 21.3079 72.9121C19.3105 68.8785 15.7952 65.7792 11.5151 64.2832C9.71993 63.6894 7.77704 64.6484 7.17758 66.4259C6.57784 68.2033 7.54645 70.127 9.34161 70.7219C11.7133 71.5701 13.6917 73.2447 14.9046 75.4332C16.2763 79.8349 21.8778 86.7971 34.2157 86.0207V91.6061C34.2157 93.4809 35.7499 95 37.6434 95C39.5356 95 41.0712 93.4809 41.0712 91.6061V73.5137C41.3307 71.5375 42.1996 69.6897 43.5576 68.2193C44.5303 67.3184 44.8828 65.94 44.462 64.6889C44.0413 63.439 42.9224 62.5448 41.5999 62.4014C29.6527 61.0244 18.6071 57.1274 18.6071 38.0256H18.6057C18.4459 33.3642 20.2643 28.8489 23.6196 25.5754C24.5295 24.6069 24.8301 23.2231 24.4038 21.9692C23.2494 18.6496 23.1743 15.0555 24.188 11.6912C28.3929 12.6313 32.3426 14.4643 35.7624 17.0629C36.6531 17.6459 37.7638 17.7961 38.7789 17.4701C43.1314 16.1579 47.6672 15.5492 52.2153 15.6669C56.755 15.5492 61.2855 16.158 65.6311 17.4701C66.6461 17.7988 67.7582 17.6486 68.6476 17.0629C71.9415 14.5631 75.7121 12.7492 79.7327 11.7293C80.7314 15.1314 80.6426 18.7552 79.4772 22.1046C79.0879 23.2422 79.342 24.5002 80.1439 25.4011C83.3858 28.8288 85.2222 33.3305 85.2946 38.0258C85.2946 57.0881 73.6807 61.0448 62.3018 62.4016C60.9069 62.5558 59.7497 63.5392 59.3864 64.8811C59.0229 66.223 59.5271 67.6474 60.6569 68.4725C61.8715 69.3842 63.2813 71.9434 63.2813 76.2287V91.5874C63.2813 93.4623 64.8156 94.9814 66.7077 94.9814C68.6013 94.9814 70.1355 93.4623 70.1355 91.5874V76.2287C70.171 73.5274 69.6724 70.8463 68.6668 68.3357C77.8721 66.3973 92.0916 60.405 92.0916 38.0841L92.0912 38.0843Z" fill="#444444"/>
</svg>
