<svg width="100" height="100" viewBox="0 0 100 100" fill="none" xmlns="http://www.w3.org/2000/svg">
<path d="M86.7545 84.7555C86.7545 85.86 85.8591 86.7555 84.7545 86.7555H15.2438C14.1393 86.7555 13.2438 85.8601 13.2438 84.7555V15.2448C13.2438 14.1402 14.1393 13.2448 15.2438 13.2448H36.9213C38.6902 13.2448 39.5883 11.1171 38.3543 9.84966L34.2217 5.60485C33.8452 5.21814 33.3284 5 32.7887 5H7C5.89543 5 5 5.89543 5 7V93C5 94.1046 5.89543 95 7 95H92.9984C94.103 95 94.9984 94.1046 94.9984 93V68.1681C94.9984 67.6414 94.7906 67.1359 94.4201 66.7614L90.1755 62.4715C88.9186 61.2013 86.7537 62.0913 86.7538 63.8783L86.7545 84.7555Z" fill="#444444"/>
<path d="M90.8769 5.00012H59.3881C57.6064 5.00012 56.714 7.15422 57.9738 8.41421L61.5952 12.0364L70.5298 20.9676C71.311 21.7485 71.3112 23.015 70.5301 23.7962L24.9947 69.3377C24.2138 70.1187 24.2138 71.385 24.9948 72.166L27.9949 75.1661C28.7759 75.9471 30.0423 75.9471 30.8234 75.166L76.3599 29.6249C77.1411 28.8436 78.4078 28.8437 79.1888 29.6251L87.9623 38.403L91.5844 42.025C92.8443 43.2849 94.9986 42.3926 94.9986 40.6108V7.0002C94.9986 5.89566 94.1032 5.00025 92.9987 5.0002L90.8769 5.00012Z" fill="#444444"/>
</svg>
